<svg xmlns="http://www.w3.org/2000/svg" version="1.1" xmlns:xlink="http://www.w3.org/1999/xlink" xmlns:svgjs="http://svgjs.com/svgjs" width="398" height="232"><svg width="398" height="232" viewBox="0 0 398 232" fill="none" xmlns="http://www.w3.org/2000/svg">
<path d="M100.445 156.545C103.615 155.969 105.2 154.384 105.2 151.79C105.2 149.1 104.335 146.122 102.606 142.855C100.973 139.493 98.5232 136.322 95.2568 133.344C86.7065 125.659 75.13 121.816 60.5272 121.816C53.3219 121.816 46.5969 123.017 40.3523 125.418C33.7234 122.056 28.4395 116.724 24.5006 109.423C20.5617 102.121 18.5923 94.2434 18.5923 85.7892C18.5923 63.6929 27.8151 46.6403 46.2607 34.6315C62.1124 24.3519 81.6628 19.2121 104.912 19.2121C122.205 19.2121 136.759 21.0855 148.576 24.8322C160.393 28.4829 170.048 33.1904 177.541 38.9546C179.751 45.2953 180.856 51.8762 180.856 58.6972C180.856 65.5182 179.943 71.7148 178.118 77.2869C176.293 82.859 173.651 87.3263 170.192 90.6888C166.926 88.287 161.017 85.8372 152.467 83.3394C143.917 80.8415 136.135 79.5926 129.122 79.5926C122.109 79.5926 117.401 80.0249 114.999 80.8896C112.694 81.7542 111.541 83.0992 111.541 84.9245C111.541 85.7892 111.685 86.6058 111.973 87.3743C115.336 86.5097 119.659 86.0774 124.943 86.0774C143.676 86.0774 158.952 90.4966 170.768 99.3352C184.699 109.903 191.664 125.755 191.664 146.89C191.664 165.528 184.122 180.995 169.039 193.292C152.707 206.454 130.755 213.035 103.183 213.035C88.0035 213.035 74.8417 211.882 63.6975 209.576C52.5533 207.367 41.6973 203.428 31.1295 197.76C23.9242 187.288 20.3216 176.672 20.3216 165.912C20.3216 155.056 24.0203 146.074 31.4177 138.964C38.8152 131.855 47.8939 128.301 58.6538 128.301C69.5098 128.301 78.3483 130.51 85.1694 134.929C92.0865 139.349 97.1782 146.554 100.445 156.545Z" fill="#FFE500"></path>
<path d="M279.569 106.54C279.953 106.829 281.058 106.973 282.883 106.973C284.708 106.973 286.101 106.252 287.062 104.811C288.023 103.37 288.503 101.016 288.503 97.75V92.5622C288.503 89.1036 288.071 86.6538 287.206 85.2127C286.438 83.6756 285.093 82.907 283.171 82.907C281.346 82.907 280.097 83.0992 279.425 83.4835C279.521 83.9638 279.569 84.7804 279.569 85.9333V106.54ZM353.927 139.397L378.858 164.903C377.129 179.891 372.373 191.419 364.591 199.489C356.906 207.559 346.242 211.594 332.6 211.594C322.32 211.594 313.386 209.144 305.796 204.244C296.093 198.096 288.839 188.297 284.036 174.847L278.848 160.724C274.813 160.628 269.721 160.1 263.573 159.139C262.804 159.908 262.42 160.965 262.42 162.31C262.42 164.903 266.311 166.441 274.093 166.921L282.307 187.672V199.921C271.259 207.703 257.088 211.594 239.795 211.594C227.402 211.594 217.507 209.048 210.109 203.956C202.712 198.865 199.013 191.467 199.013 181.764V44.863C199.013 40.6359 202.904 36.5529 210.686 32.614C218.468 28.579 228.651 25.3606 241.236 22.9589C253.822 20.461 266.407 19.2121 278.992 19.2121C307.813 19.2121 330.342 25.1205 346.578 36.9372C363.679 49.3303 372.229 66.7671 372.229 89.2477C372.229 102.121 368.578 113.169 361.277 122.392C354.072 131.519 344.945 137.86 333.897 141.414C333.897 144.488 335.722 146.026 339.373 146.026C343.12 146.026 347.971 143.816 353.927 139.397Z" fill="#9747FF"></path>
<path d="M189.79 106.15C186.888 101.83 183.4 97.8965 179.307 94.3802C182.65 90.3136 185.132 85.5025 186.882 80.158C188.394 75.5432 189.349 70.6634 189.79 65.5493V106.15ZM189.79 44.863V52.293C189.283 46.7018 188.104 41.2381 186.251 35.9197C185.66 34.2247 184.587 32.7389 183.165 31.6444C174.587 25.0459 163.876 19.9093 151.331 16.0303C138.341 11.9169 122.792 9.9893 104.912 9.9893C80.2941 9.9893 58.9005 15.4425 41.2426 26.8933L41.2287 26.9023C20.1566 40.6212 9.36949 60.5884 9.36949 85.7892C9.36949 95.7417 11.7046 105.128 16.3837 113.801C19.6525 119.861 23.8088 124.972 28.8751 128.974C27.5532 130.007 26.2701 131.12 25.0271 132.315C15.7059 141.273 11.0988 152.71 11.0988 165.912C11.0988 178.858 15.4644 191.263 23.5316 202.988C24.3647 204.198 25.4751 205.193 26.7702 205.887C38.0866 211.957 49.791 216.217 61.8667 218.616C73.7816 221.077 87.5861 222.258 103.183 222.258C132.194 222.258 156.402 215.322 174.826 200.474L174.867 200.441C180.891 195.529 185.897 190.112 189.856 184.215C190.472 195.576 195.426 205.046 204.88 211.553C214.3 218.037 226.224 220.817 239.795 220.817C258.458 220.817 274.63 216.609 287.618 207.461C288.979 206.503 290.034 205.21 290.703 203.737C293.745 206.889 297.115 209.658 300.827 212.015C310.098 217.99 320.811 220.817 332.6 220.817C348.15 220.817 361.449 216.15 371.251 205.869C380.84 195.913 386.14 182.256 388.02 165.961C388.338 163.201 387.396 160.444 385.453 158.457L362.409 134.88C364.564 132.791 366.599 130.534 368.512 128.112C377.224 117.104 381.452 103.988 381.452 89.2477C381.452 64.0379 371.662 43.7299 351.998 29.4753C333.633 16.112 308.942 9.9893 278.992 9.9893C265.804 9.9893 252.628 11.2974 239.474 13.9059C226.412 16.4009 215.314 19.8323 206.481 24.4056C202.123 26.6146 198.2 29.1776 195.255 32.2679C192.235 35.4367 189.79 39.6768 189.79 44.863Z" stroke="#273B85" stroke-width="18.4456" stroke-linejoin="round"></path>
</svg><style>@media (prefers-color-scheme: light) { :root { filter: none; } }
@media (prefers-color-scheme: dark) { :root { filter: contrast(0.3846153846153846) brightness(4.5); } }
</style></svg>